<svg width="136" height="22" viewBox="0 0 136 22" fill="none" xmlns="http://www.w3.org/2000/svg">
<path d="M28.9008 13.8124H28V9.23561C28 8.57676 28.2131 8.03945 28.6393 7.62367C29.0719 7.20789 29.6047 7 30.2375 7C30.9349 7 31.458 7.17591 31.8067 7.52772C32.1619 7.87313 32.3394 8.29851 32.3394 8.80384C32.3394 9.44989 32.0359 9.91365 31.4289 10.1951V10.2335C32.2619 10.4701 32.6785 11.0426 32.6785 11.951C32.6785 13.1919 31.9391 13.8124 30.4603 13.8124H29.2495V12.968H30.4506C30.8962 12.968 31.2223 12.8785 31.4289 12.6994C31.6356 12.5203 31.7389 12.2324 31.7389 11.8358C31.7389 11.4904 31.6259 11.2249 31.3999 11.0394C31.1803 10.8539 30.88 10.7612 30.4991 10.7612H29.5401V9.96482H30.16C30.5087 9.96482 30.8058 9.87207 31.0512 9.68657C31.303 9.49467 31.4289 9.23881 31.4289 8.91898C31.4289 8.61194 31.3321 8.35608 31.1383 8.15139C30.9511 7.9467 30.6443 7.84435 30.2182 7.84435C29.8307 7.84435 29.5143 7.96588 29.2689 8.20896C29.0235 8.44563 28.9008 8.79424 28.9008 9.2548V13.8124Z" fill="white"/>
<path d="M33.548 9.20682H34.4004V11.6151C34.4004 12.1333 34.4811 12.4947 34.6426 12.6994C34.804 12.9041 35.1011 13.0064 35.5337 13.0064H36.5508V9.20682H37.4032V13.5821C37.4032 14.3817 37.1901 14.9829 36.7639 15.3859C36.3441 15.7953 35.6822 16 34.7782 16H34.0808V15.194H34.691C35.8727 15.194 36.4926 14.7335 36.5508 13.8124H35.7371C34.8912 13.8124 34.3132 13.6652 34.0033 13.371C33.6998 13.0768 33.548 12.4787 33.548 11.5768V9.20682Z" fill="white"/>
<path d="M44.769 8.90938C44.769 9.33795 44.6915 9.69296 44.5365 9.97441C44.3816 10.2495 44.1233 10.5309 43.7616 10.8188C43.4065 11.1066 43.1546 11.3081 43.0061 11.4232C42.8641 11.5384 42.6865 11.6887 42.4734 11.8742C42.2603 12.0533 42.0698 12.2388 41.9019 12.4307C41.734 12.6226 41.6274 12.7825 41.5822 12.9104H44.7109V13.8124H40.6039V13.3902C40.6039 13.2559 40.6168 13.1215 40.6427 12.9872C40.675 12.8529 40.7395 12.6834 40.8364 12.4787C40.9397 12.2676 41.1012 12.0245 41.3207 11.7495C41.5403 11.468 42.1085 10.9819 43.0255 10.291C43.5356 9.90085 43.7907 9.42431 43.7907 8.86141C43.7907 8.58635 43.6906 8.35608 43.4904 8.17058C43.2902 7.97868 43.0029 7.88273 42.6284 7.88273C42.0278 7.88273 41.5596 8.22815 41.2238 8.91898L40.5071 8.32409C40.9914 7.44776 41.6888 7.00959 42.5993 7.00959C43.2773 7.00959 43.8068 7.17591 44.1878 7.50853C44.5753 7.84115 44.769 8.3081 44.769 8.90938Z" fill="white"/>
<path d="M45.9239 11.4424C45.911 11.2953 45.9013 11.1354 45.8948 10.9627C45.8884 10.79 45.8851 10.6109 45.8851 10.4254C45.8851 10.0032 45.911 9.58742 45.9626 9.17804C46.0207 8.76226 46.1305 8.39446 46.2919 8.07463C46.4598 7.7548 46.6955 7.49574 46.999 7.29744C47.309 7.09915 47.7158 7 48.2195 7C48.7426 7 49.1591 7.10235 49.469 7.30704C49.779 7.51173 50.0115 7.77719 50.1664 8.10341C50.3279 8.42964 50.4312 8.79744 50.4764 9.20682C50.5281 9.6162 50.5539 10.0224 50.5539 10.4254C50.5539 10.8475 50.5281 11.2665 50.4764 11.6823C50.4247 12.0981 50.315 12.4723 50.1471 12.8049C49.9856 13.1311 49.7499 13.3966 49.44 13.6013C49.1365 13.806 48.7297 13.9083 48.2195 13.9083C47.7933 13.9083 47.4414 13.8412 47.1637 13.7068C46.886 13.5661 46.66 13.3806 46.4857 13.1503C46.3178 12.92 46.1919 12.6578 46.1079 12.3635C46.024 12.0629 45.9626 11.7559 45.9239 11.4424ZM47.1056 12.5267C47.3122 12.8849 47.6835 13.064 48.2195 13.064C48.4907 13.064 48.7135 13.0256 48.8879 12.9488C49.0687 12.8721 49.214 12.7377 49.3237 12.5458C49.4335 12.3475 49.511 12.0789 49.5562 11.7399C49.6014 11.3945 49.624 10.9563 49.624 10.4254C49.624 9.90085 49.6014 9.46908 49.5562 9.13006C49.511 8.78465 49.4335 8.51279 49.3237 8.3145C49.214 8.1162 49.0687 7.97868 48.8879 7.90192C48.7135 7.82516 48.4907 7.78678 48.2195 7.78678C47.9483 7.78678 47.7223 7.82516 47.5415 7.90192C47.3671 7.97228 47.2251 8.10661 47.1153 8.3049C47.0055 8.5032 46.928 8.77185 46.8828 9.11087C46.8376 9.44989 46.815 9.88806 46.815 10.4254C46.815 11.4744 46.9119 12.1748 47.1056 12.5267Z" fill="white"/>
<path d="M53.4869 13.8124H52.5764V7.99787H51.3268L51.7337 7.09595H53.4869V13.8124Z" fill="white"/>
<path d="M55.5632 9.2548C55.5632 10.0991 55.928 10.5213 56.6577 10.5213C56.9677 10.5213 57.2648 10.4829 57.5489 10.4062V11.1834C57.2389 11.2985 56.9225 11.3561 56.5996 11.3561C55.9862 11.3561 55.4986 11.1706 55.137 10.7996C54.7818 10.4222 54.6043 9.90725 54.6043 9.2548C54.6043 8.55757 54.7948 8.00746 55.1758 7.60448C55.5567 7.20149 56.0604 7 56.6868 7C57.5457 7 58.1688 7.27505 58.5563 7.82516C58.9502 8.37527 59.1471 9.2516 59.1471 10.4542C59.1471 11.4776 58.8468 12.2932 58.2463 12.9009C57.6522 13.5085 56.8386 13.8124 55.8054 13.8124H55.2436V12.968H55.9216C56.6577 12.968 57.226 12.7569 57.6264 12.3348C58.0267 11.9126 58.2269 11.2857 58.2269 10.4542C58.2269 9.51386 58.1042 8.83902 57.8588 8.42964C57.6199 8.01386 57.2389 7.80597 56.7159 7.80597C56.3607 7.80597 56.0798 7.92751 55.8732 8.17058C55.6665 8.41365 55.5632 8.77505 55.5632 9.2548Z" fill="white"/>
<path d="M62.1725 11.8934H60.0028V11.1258H62.1725V11.8934Z" fill="white"/>
<path d="M67.0644 8.90938C67.0644 9.33795 66.9869 9.69296 66.8319 9.97441C66.677 10.2495 66.4187 10.5309 66.057 10.8188C65.7019 11.1066 65.45 11.3081 65.3015 11.4232C65.1594 11.5384 64.9819 11.6887 64.7688 11.8742C64.5557 12.0533 64.3652 12.2388 64.1973 12.4307C64.0294 12.6226 63.9228 12.7825 63.8776 12.9104H67.0063V13.8124H62.8993V13.3902C62.8993 13.2559 62.9122 13.1215 62.9381 12.9872C62.9704 12.8529 63.0349 12.6834 63.1318 12.4787C63.2351 12.2676 63.3966 12.0245 63.6161 11.7495C63.8357 11.468 64.4039 10.9819 65.3209 10.291C65.831 9.90085 66.0861 9.42431 66.0861 8.86141C66.0861 8.58635 65.986 8.35608 65.7858 8.17058C65.5856 7.97868 65.2983 7.88273 64.9237 7.88273C64.3232 7.88273 63.855 8.22815 63.5192 8.91898L62.8025 8.32409C63.2868 7.44776 63.9842 7.00959 64.8947 7.00959C65.5727 7.00959 66.1022 7.17591 66.4832 7.50853C66.8707 7.84115 67.0644 8.3081 67.0644 8.90938Z" fill="white"/>
<path d="M72.4328 11.7015C72.4328 12.3923 72.2229 12.9328 71.8032 13.323C71.3899 13.7132 70.8378 13.9083 70.1468 13.9083C69.5463 13.9083 69.0555 13.7964 68.6745 13.5725C68.3 13.3486 68.0611 13.0224 67.9577 12.5938L68.6745 11.8934C68.7456 12.258 68.9038 12.5458 69.1491 12.7569C69.401 12.9616 69.7239 13.064 70.1178 13.064C71.0024 13.064 71.4448 12.6098 71.4448 11.7015C71.4448 10.8891 70.9443 10.4829 69.9434 10.4829H69.401V9.58102C69.7949 9.45949 70.1436 9.26119 70.4471 8.98614C70.7506 8.70469 70.9702 8.37527 71.1058 7.99787H68.2774V7.09595H72.0163V7.29744C72.0163 8.37207 71.5998 9.16205 70.7668 9.66738C71.3092 9.78891 71.7225 10.0256 72.0066 10.3774C72.2907 10.7292 72.4328 11.1706 72.4328 11.7015Z" fill="white"/>
<path d="M77.5667 7.9403V7.09595H81.8287V7.9403H80.1529V13.8124H79.2424V7.9403H77.5667Z" fill="white"/>
<path d="M84.9305 9.11087C86.0283 9.15565 86.5772 9.60661 86.5772 10.4638C86.5772 11.532 85.8701 12.0661 84.4559 12.0661H84.0588V11.3273H84.5237C84.9564 11.3273 85.2566 11.2633 85.4245 11.1354C85.5924 11.0011 85.6764 10.7804 85.6764 10.4733C85.6764 10.2751 85.6021 10.1279 85.4536 10.032C85.3051 9.92964 85.1146 9.87846 84.8821 9.87846C84.4236 9.87846 84.062 10.0384 83.7972 10.3582C83.5389 10.678 83.4098 11.0618 83.4098 11.5096C83.4098 11.9829 83.5486 12.3667 83.8263 12.661C84.1104 12.9552 84.4785 13.1023 84.9305 13.1023C85.3374 13.1023 85.6699 13.0032 85.9282 12.8049L86.5094 13.371C86.0638 13.7292 85.5375 13.9083 84.9305 13.9083C84.1944 13.9083 83.6068 13.694 83.1676 13.2655C82.7285 12.8369 82.509 12.2836 82.509 11.6055C82.509 10.8507 82.7253 10.2399 83.158 9.77292C83.5906 9.30597 84.1815 9.08529 84.9305 9.11087Z" fill="white"/>
<path d="M90.7218 12.8049L91.303 13.371C90.8574 13.7292 90.3472 13.9083 89.7725 13.9083C89.0557 13.9083 88.481 13.6812 88.0484 13.2271C87.6157 12.7665 87.3994 12.194 87.3994 11.5096C87.3994 10.838 87.6254 10.2719 88.0774 9.8113C88.5359 9.34435 89.1009 9.11087 89.7725 9.11087C90.3472 9.11087 90.8574 9.28998 91.303 9.64819L90.7315 10.2239C90.4603 10.0192 90.1406 9.91684 89.7725 9.91684C89.327 9.91684 88.9718 10.064 88.707 10.3582C88.4487 10.6461 88.3196 11.0299 88.3196 11.5096C88.3196 11.9893 88.4487 12.3763 88.707 12.6706C88.9718 12.9584 89.327 13.1023 89.7725 13.1023C90.1471 13.1023 90.4635 13.0032 90.7218 12.8049Z" fill="white"/>
<path d="M92.9753 7.09595V9.20682H93.7987C94.5155 9.20682 95.0288 9.31237 95.3388 9.52345C95.6165 9.70896 95.7908 9.93284 95.8618 10.1951C95.9393 10.451 95.9781 10.79 95.9781 11.2122V13.8124H95.1257V11.2217C95.1257 11.1066 95.1225 11.0107 95.116 10.9339C95.1096 10.8507 95.0869 10.7484 95.0482 10.6269C95.0095 10.4989 94.9546 10.3966 94.8835 10.3198C94.8125 10.2367 94.7092 10.1663 94.5736 10.1087C94.438 10.0448 94.2733 10.0128 94.0796 10.0128H92.9753V13.8124H92.123V7.09595H92.9753Z" fill="white"/>
<path d="M98.3956 13.8124H97.5432V10.0128H96.7489L97.1363 9.20682H98.3956V13.8124ZM97.5044 8.24733C97.4205 8.13859 97.3785 8.02026 97.3785 7.89232C97.3785 7.76439 97.4205 7.64925 97.5044 7.54691C97.5884 7.43817 97.7175 7.3838 97.8919 7.3838C98.0662 7.3838 98.1954 7.43817 98.2793 7.54691C98.3633 7.64925 98.4052 7.76439 98.4052 7.89232C98.4052 8.02026 98.3633 8.13859 98.2793 8.24733C98.1954 8.34968 98.0662 8.40085 97.8919 8.40085C97.7175 8.40085 97.5884 8.34968 97.5044 8.24733Z" fill="white"/>
<path d="M101.967 9.11087C103.064 9.15565 103.613 9.60661 103.613 10.4638C103.613 11.532 102.906 12.0661 101.492 12.0661H101.095V11.3273H101.56C101.992 11.3273 102.293 11.2633 102.461 11.1354C102.629 11.0011 102.712 10.7804 102.712 10.4733C102.712 10.2751 102.638 10.1279 102.49 10.032C102.341 9.92964 102.151 9.87846 101.918 9.87846C101.46 9.87846 101.098 10.0384 100.833 10.3582C100.575 10.678 100.446 11.0618 100.446 11.5096C100.446 11.9829 100.585 12.3667 100.862 12.661C101.147 12.9552 101.515 13.1023 101.967 13.1023C102.373 13.1023 102.706 13.0032 102.964 12.8049L103.545 13.371C103.1 13.7292 102.574 13.9083 101.967 13.9083C101.23 13.9083 100.643 13.694 100.204 13.2655C99.7646 12.8369 99.545 12.2836 99.545 11.6055C99.545 10.8507 99.7614 10.2399 100.194 9.77292C100.627 9.30597 101.218 9.08529 101.967 9.11087Z" fill="white"/>
<path d="M107.806 9.20682V10.0128H106.092C105.905 10.0128 105.743 10.048 105.607 10.1183C105.472 10.1887 105.404 10.2878 105.404 10.4158C105.404 10.4925 105.42 10.5629 105.453 10.6269C105.485 10.6844 105.52 10.7324 105.559 10.7708C105.604 10.8092 105.669 10.8507 105.753 10.8955C105.843 10.9339 105.911 10.9627 105.956 10.9819C106.008 10.9947 106.215 11.0586 106.576 11.1738C106.938 11.2889 107.206 11.3849 107.38 11.4616C107.554 11.5384 107.687 11.6439 107.777 11.7783C107.874 11.9062 107.935 12.0341 107.961 12.162C107.987 12.2836 108 12.4051 108 12.5267C108 13.3838 107.406 13.8124 106.218 13.8124H104.542V13.0064H106.218C106.825 13.0064 107.128 12.8465 107.128 12.5267C107.128 12.3731 107.038 12.2452 106.857 12.1429C106.683 12.0405 106.466 11.9542 106.208 11.8838C105.956 11.8134 105.701 11.7335 105.443 11.6439C105.191 11.548 104.975 11.3977 104.794 11.193C104.62 10.9819 104.532 10.7228 104.532 10.4158C104.532 10.0256 104.684 9.72814 104.988 9.52345C105.291 9.31237 105.659 9.20682 106.092 9.20682H107.806Z" fill="white"/>
<path fill-rule="evenodd" clip-rule="evenodd" d="M113 14.9244C115.307 14.5624 117.047 12.943 117.047 11C117.047 9.05699 115.307 7.43755 113 7.07557C113.316 7.02599 113.643 7 113.977 7C116.751 7 119 8.79086 119 11C119 13.2091 116.751 15 113.977 15C113.643 15 113.316 14.974 113 14.9244Z" fill="#8525FF"/>
<path fill-rule="evenodd" clip-rule="evenodd" d="M117 18.8583C120.46 18.1796 123.07 15.1432 123.07 11.5C123.07 7.85684 120.46 4.82038 117 4.14168C117.474 4.04873 117.964 4 118.465 4C122.626 4 126 7.35786 126 11.5C126 15.6421 122.626 19 118.465 19C117.964 19 117.474 18.9513 117 18.8583Z" fill="#8525FF"/>
<path fill-rule="evenodd" clip-rule="evenodd" d="M122 21.7922C127.382 20.7968 131.442 16.3433 131.442 11C131.442 5.65671 127.382 1.20324 122 0.207808C122.737 0.0714688 123.499 0 124.279 0C130.752 0 136 4.92487 136 11C136 17.0751 130.752 22 124.279 22C123.499 22 122.737 21.9285 122 21.7922Z" fill="#8525FF"/>
<path fill-rule="evenodd" clip-rule="evenodd" d="M22 14.9244C20.0777 14.5624 18.6279 12.943 18.6279 11C18.6279 9.05699 20.0777 7.43755 22 7.07557C21.7367 7.02599 21.4646 7 21.186 7C18.8742 7 17 8.79086 17 11C17 13.2091 18.8742 15 21.186 15C21.4646 15 21.7367 14.974 22 14.9244Z" fill="#8525FF"/>
<path fill-rule="evenodd" clip-rule="evenodd" d="M18 18.8583C14.9243 18.1796 12.6046 15.1432 12.6046 11.5C12.6046 7.85684 14.9243 4.82038 18 4.14168C17.5787 4.04873 17.1433 4 16.6977 4C12.9987 4 10 7.35786 10 11.5C10 15.6421 12.9987 19 16.6977 19C17.1433 19 17.5787 18.9513 18 18.8583Z" fill="#8525FF"/>
<path fill-rule="evenodd" clip-rule="evenodd" d="M13 21.7922C8.00202 20.7968 4.23249 16.3433 4.23249 11C4.23249 5.65671 8.00202 1.20324 13 0.207808C12.3155 0.0714688 11.6079 0 10.8838 0C4.87282 0 -6.61717e-08 4.92487 -6.61717e-08 11C-6.61717e-08 17.0751 4.87282 22 10.8838 22C11.6079 22 12.3155 21.9285 13 21.7922Z" fill="#8525FF"/>
</svg>
